<svg width="43" height="44" viewBox="0 0 43 44" fill="none" xmlns="http://www.w3.org/2000/svg">
<rect y="4" width="40" height="40" rx="8" fill="#3C86F4" fill-opacity="0.2"/>
<path d="M16.2 25.8C17.8774 25.8 19.2869 26.9473 19.6866 28.5H29.7C30.197 28.5 30.6 28.903 30.6 29.4C30.6 29.8419 30.2816 30.2093 29.8618 30.2854L29.7 30.3L19.6861 30.3018C19.2858 31.8536 17.8768 33 16.2 33C14.5232 33 13.1142 31.8536 12.7139 30.3018L9.9 30.3C9.40295 30.3 9 29.897 9 29.4C9 28.9581 9.31838 28.5907 9.73822 28.5146L9.9 28.5H12.7134C13.1131 26.9473 14.5226 25.8 16.2 25.8ZM16.2 27.6C15.2059 27.6 14.4 28.4059 14.4 29.4C14.4 30.3941 15.2059 31.2 16.2 31.2C17.1941 31.2 18 30.3941 18 29.4C18 28.4059 17.1941 27.6 16.2 27.6ZM23.4 15C25.0774 15 26.487 16.1473 26.8866 17.7L29.7 17.7C30.197 17.7 30.6 18.1029 30.6 18.6C30.6 19.0418 30.2816 19.4093 29.8618 19.4855L29.7 19.5L26.8861 19.5018C26.4859 21.0536 25.0769 22.2 23.4 22.2C21.7232 22.2 20.3142 21.0536 19.9139 19.5018L9.9 19.5C9.40295 19.5 9 19.0971 9 18.6C9 18.1582 9.31838 17.7907 9.73822 17.7145L9.9 17.7L19.9134 17.7C20.3131 16.1473 21.7226 15 23.4 15ZM23.4 16.8C22.4059 16.8 21.6 17.6059 21.6 18.6C21.6 19.5941 22.4059 20.4 23.4 20.4C24.3941 20.4 25.2 19.5941 25.2 18.6C25.2 17.6059 24.3941 16.8 23.4 16.8Z" fill="#3C86F4"/>
<circle cx="37" cy="6" r="6" fill="#3C86F4"/>
</svg>
