<svg width="15" height="14" viewBox="0 0 15 14" fill="none" xmlns="http://www.w3.org/2000/svg">
<path d="M9.45961 1.55556C9.25333 1.55556 9.0555 1.47361 8.90964 1.32775C8.76377 1.18189 8.68183 0.984057 8.68183 0.777778C8.68183 0.571498 8.76377 0.373667 8.90964 0.227806C9.0555 0.0819442 9.25333 0 9.45961 0H14.1263C14.3326 0 14.5304 0.0819442 14.6762 0.227806C14.8221 0.373667 14.9041 0.571498 14.9041 0.777778V5.44444C14.9041 5.65072 14.8221 5.84855 14.6762 5.99442C14.5304 6.14028 14.3326 6.22222 14.1263 6.22222C13.92 6.22222 13.7222 6.14028 13.5763 5.99442C13.4304 5.84855 13.3485 5.65072 13.3485 5.44444V2.65533L6.12061 9.88322C5.97392 10.0249 5.77745 10.1033 5.57352 10.1015C5.36959 10.0998 5.17451 10.018 5.0303 9.87375C4.8861 9.72954 4.8043 9.53446 4.80253 9.33053C4.80076 9.1266 4.87915 8.93014 5.02083 8.78344L12.2487 1.55556H9.45961ZM0.904053 3.11111C0.904053 2.69855 1.06794 2.30289 1.35966 2.01117C1.65139 1.71944 2.04705 1.55556 2.45961 1.55556H6.3485C6.55478 1.55556 6.75261 1.6375 6.89847 1.78336C7.04433 1.92922 7.12628 2.12705 7.12628 2.33333C7.12628 2.53961 7.04433 2.73744 6.89847 2.88331C6.75261 3.02917 6.55478 3.11111 6.3485 3.11111H2.45961V12.4444H11.7929V8.55556C11.7929 8.34928 11.8749 8.15145 12.0207 8.00558C12.1666 7.85972 12.3644 7.77778 12.5707 7.77778C12.777 7.77778 12.9748 7.85972 13.1207 8.00558C13.2666 8.15145 13.3485 8.34928 13.3485 8.55556V12.4444C13.3485 12.857 13.1846 13.2527 12.8929 13.5444C12.6012 13.8361 12.2055 14 11.7929 14H2.45961C2.04705 14 1.65139 13.8361 1.35966 13.5444C1.06794 13.2527 0.904053 12.857 0.904053 12.4444V3.11111Z" fill="#9F9F9F"/>
</svg>
